<?xml version="1.0" encoding="UTF-8"?><!DOCTYPE svg PUBLIC "-//W3C//DTD SVG 1.1//EN" "http://www.w3.org/Graphics/SVG/1.1/DTD/svg11.dtd"><svg xmlns="http://www.w3.org/2000/svg"><symbol id="svg-shape_1" viewBox="0 0 24 41"><path fill-rule="evenodd" d="M18.086 20.119a.589.589 0 0 1-.83-.008.58.58 0 0 1 .008-.823c3.766-3.659 3.577-7.255 3.574-7.29-.038-.547-.54-1.007-1.096-1.007h-2.03l-1.92 12.078c-.203 1.134-1.264 2.018-2.418 2.018H7.1c-1.156 0-2.219-.882-2.417-2.01L2.08 6.754a1.884 1.884 0 0 1 .401-1.546c.355-.418.894-.656 1.478-.656h12.55c.584 0 1.125.238 1.48.656.354.418.498.983.398 1.554l-.487 3.064h1.843c1.167 0 2.184.937 2.268 2.089.013.168.254 4.145-3.924 8.204zm-.997-14.163c-.131-.156-.338-.242-.578-.242h-6v7.555c.562.006.987.066.987.708 0 .747-.564 1.99-1.258 1.99-.699 0-1.261-1.245-1.261-1.99 0-.642.425-.702.985-.708V5.714h-6a.742.742 0 0 0-.58.242c-.132.157-.183.37-.142.607l2.6 16.321c.1.548.687 1.039 1.26 1.039h6.272c.573 0 1.163-.491 1.262-1.047l2.593-16.304c.044-.245-.006-.46-.14-.616zm-6.07 17.029H9.452 7.884l-1.57-4.657 2.354 4.043h.888l.68-4.043.679 4.043h.89l2.353-4.043-1.57 4.657H11.02zM5.532 3.163h.922c.436-.668 1.955-1.165 3.781-1.165 1.828 0 3.348.497 3.785 1.165h.923l1.569.776H3.96l1.57-.776zm.783 22.619h7.844v1.551H6.314v-1.551zm-2.361 1.505c.284-.811.646-.971.804-.349.16.625 1.068 1.135 2.02 1.135h6.918c.952 0 1.86-.51 2.019-1.135.157-.622.518-.464.807.349l1.846 10.23c.284.818-.261 1.484-1.21 1.484H3.315c-.95 0-1.495-.666-1.21-1.483l1.847-10.231zm6.281 9.553c.414 0 .748-.164.748-.37 0-.204-.334-.368-.748-.368-.41 0-.744.164-.744.369s.334.369.744.369zm0-1.846c.827 0 1.494-.164 1.494-.368 0-.205-.668-.37-1.494-.37-.823 0-1.49.165-1.49.37 0 .204.667.368 1.49.368zm0-1.848c.827 0 1.494-.164 1.494-.369 0-.202-.668-.369-1.494-.369-.823 0-1.49.167-1.49.369 0 .205.667.37 1.49.37zm0-1.845c.827 0 1.494-.165 1.494-.37 0-.2-.668-.368-1.494-.368-.823 0-1.49.167-1.49.369 0 .204.667.369 1.49.369z"/></symbol><symbol id="svg-shape_2" viewBox="0 0 40 26"><path fill-rule="evenodd" d="M36.471 13.03c-.447.26-.93 2.441-1.303 2.441h-.33c-.492 3.233-1.379 7.063-2.902 8.447h1.354v1.077H7.42v-1.077h1.179c-1.561-1.38-2.152-5.19-2.53-8.416h-.237c-.373 0-.856-2.183-1.303-2.44-.448-.259-2.53-.186-2.53-.186v-.85s2.12-.222 2.752 0c.335.117.751.471 1.07.779a59.959 59.959 0 0 1-.098-1.883h-.795V9.5h30.976v1.424h-.549a62.246 62.246 0 0 1-.168 1.841c.318-.305.728-.652 1.061-.77.632-.222 2.752 0 2.752 0v.85s-2.081-.073-2.529.186zm-26.08 8.331l-.395-1.923-.197-1.07a18.769 18.769 0 0 1-.164-1.09c-.051-.326-.081-.77-.108-1.102l-.08-1.1c-.054-.718-.105-1.386-.158-1.966-.093-1.154-.177-1.96-.177-1.96s-.102.177-.228.509c-.13.328-.285.81-.41 1.396-.136.587-.223 1.28-.282 2.024-.021.373-.028.757-.03 1.15.003.433.026.768.084 1.212.214 1.645.823 3.14 1.402 4.194.572 1.056 1.129 1.66 1.129 1.66s-.136-.801-.386-1.934zM8.35 5.834h6.525c.709-.588 1.708-1.067 2.902-1.374-.017-.646.074-1.674.732-2.456.558-.663 1.378-1 2.434-1 1.053 0 1.878.334 2.445.996.703.813.795 1.897.78 2.53 1.088.307 1.999.757 2.658 1.304h5.215c2.53 0 2.994 1.576 2.994 2.591H5.791c0-.84.484-2.59 2.56-2.59zm12.5-1.746c.666 0 1.307.055 1.917.144-.024-.432-.131-.97-.446-1.334-.295-.338-.747-.505-1.378-.505-.628 0-1.072.164-1.355.499-.3.355-.397.883-.412 1.311a12.94 12.94 0 0 1 1.674-.115z"/></symbol></svg>